<svg width="22" height="20" viewBox="0 0 22 20" fill="none" xmlns="http://www.w3.org/2000/svg">
<path d="M4.99129 0.5C3.69129 0.5 2.5913 1.4 1.9913 2.7C1.3913 4 0.991295 5.6 0.991295 7.5C0.991295 9.3 1.3913 10.9 2.0913 12.3C2.1913 12.4 2.2913 12.5 2.2913 12.6C1.6913 13.2 1.1913 13.7 1.1913 13.7C0.891295 13.9 0.791295 14.4 1.0913 14.8C1.2913 15.1 1.7913 15.2 2.1913 14.9C2.1913 14.9 2.6913 14.4 3.3913 13.8C4.0913 14.2 4.89129 14.5 5.7913 14.5C7.5913 14.5 9.3913 13.6 10.7913 12.3C11.2913 12.7 11.8913 13 12.5913 13C13.4913 13 14.1913 12.5 14.6913 12C15.1913 11.5 15.5913 10.8 15.8913 10.1C16.0913 9.7 16.1913 9.4 16.2913 9.1C16.2913 9.2 16.2913 9.3 16.2913 9.4C16.3913 9.9 16.3913 10.5 16.5913 10.9C16.6913 11.1 16.7913 11.4 16.9913 11.6C17.1913 11.8 17.5913 12 17.8913 12C18.3913 12 18.7913 11.7 18.9913 11.4C19.1913 11.1 19.2913 10.8 19.4913 10.5C19.7913 9.9 19.9913 9.3 20.5913 8.8C20.8913 8.5 20.9913 8.1 20.6913 7.7C20.3913 7.3 19.9913 7.3 19.5913 7.6C18.6913 8.3 18.2913 9.2 17.9913 9.8C17.8913 10 17.8913 10.1 17.7913 10.2C17.6913 9.9 17.5913 9.5 17.5913 9.1C17.4913 8.6 17.4913 8.1 17.3913 7.7C17.3913 7.5 17.2913 7.3 17.1913 7C17.2913 6.8 16.9913 6.5 16.4913 6.5C15.9913 6.5 15.7913 6.8 15.5913 7C15.3913 7.2 15.3913 7.5 15.2913 7.7C15.0913 8.2 14.7913 8.8 14.5913 9.4C14.2913 10 13.9913 10.6 13.5913 10.9C13.2913 11.3 12.8913 11.4 12.5913 11.4C12.2913 11.4 12.0913 11.3 11.7913 11.2C13.0913 9.8 13.9913 8.1 13.9913 6.5C13.9913 6 13.7913 5.4 13.4913 4.9C13.0913 4.4 12.4913 4 11.7913 4C10.7913 4 9.99129 4.6 9.5913 5.3C9.1913 6.1 8.99129 7.1 8.99129 8.3C8.99129 9.2 9.19129 10.3 9.69129 11.2C8.49129 12.3 7.09129 13.1 5.69129 13.1C5.19129 13.1 4.6913 13 4.3913 12.7C6.0913 10.7 7.99129 7.8 7.99129 4.3C7.99129 3.7 7.89129 2.8 7.39129 2.1C6.89129 1.4 6.19129 0.5 4.99129 0.5ZM4.99129 2C5.59129 2 5.89129 2.3 6.09129 2.7C6.39129 3.2 6.49129 3.8 6.49129 4.2C6.49129 7 4.8913 9.6 3.3913 11.4C2.8913 10.4 2.4913 9 2.4913 7.5C2.4913 5.7 2.7913 4.3 3.2913 3.3C3.7913 2.3 4.29129 2 4.99129 2ZM11.7913 5.5C12.0913 5.5 12.1913 5.6 12.2913 5.8C12.3913 6 12.4913 6.3 12.4913 6.5C12.4913 7.4 11.7913 8.7 10.8913 9.9C10.6913 9.4 10.4913 8.8 10.4913 8.3C10.4913 7.3 10.6913 6.5 10.8913 6.1C11.1913 5.6 11.3913 5.5 11.7913 5.5ZM1.7913 18C1.3913 18 0.991295 18.3 0.991295 18.7C0.991295 19.2 1.2913 19.5 1.7913 19.5H20.2913C20.6913 19.5 21.0913 19.2 21.0913 18.8C21.0913 18.4 20.7913 18 20.3913 18H1.7913Z" fill="#212629"/>
</svg>
